#!OML:ASF F:\VICON\USERDATA\INSTALL\rory3\rory3.ASF
:FULLY-SPECIFIED
:DEGREES
1117
root 8.58437 16.8423 28.1025 -326.867 27.2079 364.178
lowerback -19.4976 -5.41691 1.2979
upperback -16.5994 -6.94375 1.48127
thorax -7.33112 -3.44965 -0.00535181
lowerneck -14.8647 -0.0962175 -2.55117
upperneck 41.1053 -0.228796 2.79821
head 17.7037 -0.0133568 1.74213
rclavicle 8.96022e-014 7.35503e-014
rhumerus -33.7342 -72.9873 30.8707
rradius 15.7238
rwrist 40.1976
rhand 3.54002 3.04868
rfingers 7.12502
rthumb 28.9765 -24.7191
lclavicle 8.96022e-014 7.35503e-014
lhumerus 64.0923 3.62379 17.8997
lradius 29.7099
lwrist -12.2143
lhand 8.41167 24.7816
lfingers 7.12502
lthumb 33.6184 51.6493
rfemur -57.3957 4.45032 24.1234
rtibia 38.4362
rfoot -47.8416 -39.5558
rtoes 44.2043
lfemur -10.9904 -3.47549 -23.0055
ltibia 27.9187
lfoot 9.5014 44.4575
ltoes 20.9264
1118
root 8.55186 16.8247 28.1273 -326.25 26.4333 364.94
lowerback -20.061 -5.6264 -0.130887
upperback -16.5708 -7.02366 1.4443
thorax -6.83845 -3.35882 0.658932
lowerneck -15.1134 -0.0588762 -2.59151
upperneck 41.2912 -0.18904 2.88822
head 17.8769 0.00781984 1.80733
rclavicle 1.58034e-014 -1.90833e-014
rhumerus -33.4269 -73.1279 30.5276
rradius 15.6865
rwrist 40.3299
rhand 3.56101 3.03073
rfingers 7.12502
rthumb 28.9965 -24.7336
lclavicle 1.58034e-014 -1.90833e-014
lhumerus 63.895 3.53312 17.1514
lradius 29.9209
lwrist -11.423
lhand 8.15032 25.1487
lfingers 7.12502
lthumb 33.3699 52.0701
rfemur -57.8742 4.79897 23.1639
rtibia 38.4748
rfoot -47.7537 -39.6495
rtoes 44.3452
lfemur -11.2753 -3.34489 -23.8989
ltibia 27.9093
lfoot 7.87706 44.736
ltoes 22.9474
1119
root 8.58612 16.8487 28.0948 -327.398 27.6938 363.47
lowerback -19.4688 -5.34718 2.18663
upperback -16.3443 -6.97241 1.66818
thorax -7.13535 -3.53765 -0.305487
lowerneck -15.3316 0.0130625 -2.57125
upperneck 41.2972 -0.0970435 2.93561
head 17.9344 0.0554157 1.846
rclavicle 8.23465e-014 3.73715e-014
rhumerus -30.2608 -71.1866 27.149
rradius 15.7706
rwrist 37.733
rhand 3.21303 2.40055
rfingers 7.12502
rthumb 28.6641 -25.4205
lclavicle 8.23465e-014 3.73715e-014
lhumerus 63.8325 3.66348 16.787
lradius 30.0709
lwrist -10.9915
lhand 8.20383 25.426
lfingers 7.12502
lthumb 33.4208 52.3365
rfemur -57.042 4.38953 24.9596
rtibia 38.2935
rfoot -47.8001 -39.677
rtoes 44.0981
lfemur -10.8622 -3.49405 -22.1689
ltibia 28.1104
lfoot 7.15378 44.7037
ltoes 23.8474
1120
root 8.58678 16.8484 28.0945 -327.487 27.645 363.421
lowerback -19.5939 -5.33512 2.22353
upperback -16.1616 -6.97057 1.68302
thorax -6.85892 -3.53909 -0.335948
lowerneck -15.4878 0.0861301 -2.43246
upperneck 41.215 0.0143999 2.83585
head 17.9226 0.108854 1.79432
rclavicle -1.86858e-014 -2.38542e-014
rhumerus -30.9007 -71.9432 27.7568
rradius 15.7185
rwrist 37.8887
rhand 2.95049 2.29018
rfingers 7.12502
rthumb 28.4132 -25.573
lclavicle -1.86858e-014 -2.38542e-014
lhumerus 63.7891 3.91205 16.5444
lradius 30.1349
lwrist -10.7081
lhand 8.27805 25.5459
lfingers 7.12502
lthumb 33.4914 52.4411
rfemur -56.9189 4.44289 24.9765
rtibia 38.2024
rfoot -47.9509 -39.5374
rtoes 44.1795
lfemur -10.8367 -3.39129 -22.1753
ltibia 28.2357
lfoot 6.38439 44.7089
ltoes 24.6895
1121
root 8.58349 16.8458 28.0918 -327.531 27.5656 363.434
lowerback -19.6119 -5.32867 2.16639
upperback -16.052 -6.96023 1.67742
thorax -6.71342 -3.52897 -0.320296
lowerneck -15.7159 0.0806598 -2.39363
upperneck 41.2504 0.0127526 2.79607
head 18.0051 0.107958 1.77198
rclavicle -1.19271e-014 2.14687e-014
rhumerus -37.7312 -75.8768 34.8948
rradius 15.542
rwrist 42.0075
rhand 3.06897 2.79755
rfingers 7.12502
rthumb 28.5265 -25.0467
lclavicle -1.19271e-014 2.14687e-014
lhumerus 63.7607 4.07037 16.4148
lradius 30.1611
lwrist -10.6756
lhand 8.3097 25.5383
lfingers 7.12502
lthumb 33.5214 52.4271
rfemur -56.8062 4.50702 24.9428
rtibia 38.0627
rfoot -47.827 -39.6016
rtoes 44.2684
lfemur -10.8647 -3.41311 -22.2304
ltibia 28.4309
lfoot 4.11595 44.8484
ltoes 27.3781
1122
root 8.57621 16.8464 28.087 -327.566 27.5652 363.353
lowerback -19.4976 -5.33691 2.23772
upperback -16.0944 -6.9786 1.70139
thorax -6.82779 -3.54425 -0.321119
lowerneck -15.8563 0.105379 -2.32015
upperneck 41.4161 0.0318263 2.78471
head 18.1407 0.124326 1.76403
rclavicle -2.00773e-014 -2.46493e-014
rhumerus -44.529 -78.1898 41.8842
rradius 15.4336
rwrist 44.9784
rhand 3.32366 3.4334
rfingers 7.12502
rthumb 28.7698 -24.3697
lclavicle -2.00773e-014 -2.46493e-014
lhumerus 63.6576 4.08236 16.4375
lradius 30.2302
lwrist -10.7338
lhand 8.48095 25.486
lfingers 7.12502
lthumb 33.6842 52.3393
rfemur -56.8393 4.56797 25.0298
rtibia 38.0536
rfoot -47.487 -39.8608
rtoes 43.9918
lfemur -10.8642 -3.49025 -22.1248
ltibia 28.4234
lfoot 0.80206 45.0726
ltoes 30.8588
1123
root 8.57088 16.8456 28.0818 -327.454 27.4318 363.551
lowerback -19.4308 -5.4049 1.99397
upperback -16.1792 -7.03336 1.69378
thorax -6.93114 -3.55091 -0.191624
lowerneck -15.736 0.162439 -2.24479
upperneck 41.3894 0.0959227 2.77258
head 18.0893 0.160694 1.75471
rclavicle -5.0541e-014 -4.37326e-014
rhumerus -46.6083 -78.8093 44.0238
rradius 15.3999
rwrist 45.9616
rhand 3.40521 3.73679
rfingers 7.12502
rthumb 28.8477 -24.0531
lclavicle -5.0541e-014 -4.37326e-014
lhumerus 63.5433 4.02473 16.3643
lradius 30.2852
lwrist -10.7575
lhand 8.6376 25.5452
lfingers 7.12502
lthumb 33.833 52.3658
rfemur -56.9588 4.57006 24.8014
rtibia 38.0937
rfoot -47.448 -39.9355
rtoes 43.9699
lfemur -10.8564 -3.51744 -22.3595
ltibia 28.3746
lfoot -0.0745394 45.021
ltoes 31.514
1124
root 8.56863 16.8438 28.0799 -327.392 27.3489 363.639
lowerback -19.4641 -5.39748 1.89381
upperback -16.1384 -7.01335 1.66418
thorax -6.85636 -3.53341 -0.173183
lowerneck -15.868 0.161273 -2.2337
upperneck 41.324 0.0855712 2.78753
head 18.0865 0.160764 1.75713
rclavicle -4.69132e-014 -6.79844e-014
rhumerus -49.6824 -79.3136 47.1692
rradius 15.4184
rwrist 46.6909
rhand 3.59303 3.99274
rfingers 7.12502
rthumb 29.0271 -23.7664
lclavicle -4.69132e-014 -6.79844e-014
lhumerus 63.6567 4.07739 16.4143
lradius 30.2219
lwrist -10.7949
lhand 8.56403 25.4711
lfingers 7.12502
lthumb 33.7631 52.3072
rfemur -57.0304 4.59056 24.6864
rtibia 38.134
rfoot -47.6705 -39.7271
rtoes 44.0956
lfemur -10.8736 -3.4525 -22.4825
ltibia 28.3231
lfoot 2.9098 44.8901
ltoes 28.2192
1125
root 8.5682 16.8426 28.0781 -327.268 27.2652 363.764
lowerback -19.6778 -5.32704 1.79656
upperback -15.8768 -6.92029 1.58803
thorax -6.43661 -3.48133 -0.230743
lowerneck -16.5017 0.0662483 -2.36686
upperneck 41.2643 -0.0361238 2.86565
head 18.2284 0.101507 1.79978
rclavicle 6.84813e-014 9.18385e-014
rhumerus -49.5411 -79.0252 46.9695
rradius 15.4781
rwrist 45.7049
rhand 3.46445 3.64457
rfingers 7.12502
rthumb 28.9043 -24.1356
lclavicle 6.84813e-014 9.18385e-014
lhumerus 64.045 4.51753 16.6274
lradius 30.1391
lwrist -10.8381
lhand 8.51766 25.4003
lfingers 7.12502
lthumb 33.7191 52.246
rfemur -57.13 4.5978 24.5473
rtibia 38.1696
rfoot -47.5473 -39.8051
rtoes 44.0193
lfemur -10.9407 -3.40257 -22.6469
ltibia 28.2815
lfoot 6.16682 44.5959
ltoes 24.4601
1126
root 8.53991 16.8296 28.0991 -326.902 26.7951 364.049
lowerback -20.2696 -5.42851 0.887223
upperback -15.6583 -6.93128 1.67109
thorax -5.75738 -3.40212 0.273706
lowerneck -16.8331 0.0461512 -2.48892
upperneck 41.122 -0.0373561 2.91662
head 18.2334 0.0892823 1.8446
rclavicle -2.04748e-014 7.55382e-015
rhumerus -49.9691 -79.3237 47.3535
rradius 15.4581
rwrist 45.1302
rhand 3.08132 3.21756
rfingers 7.12502
rthumb 28.5383 -24.6247
lclavicle -2.04748e-014 7.55382e-015
lhumerus 64.3258 5.03282 17.1787
lradius 29.9533
lwrist -11.2955
lhand 8.65537 25.1156
lfingers 7.12502
lthumb 33.8499 51.9325
rfemur -57.4606 4.96561 24.1449
rtibia 38.1534
rfoot -47.3602 -39.9864
rtoes 43.9432
lfemur -11.221 -3.1703 -22.9776
ltibia 28.2933
lfoot 7.02864 44.4289
ltoes 23.4382
1127
root 8.56464 16.8456 28.0767 -327.197 27.3675 363.597
lowerback -20.1633 -5.31639 1.94548
upperback -15.5761 -6.93849 1.69463
thorax -5.84742 -3.49564 -0.26991
lowerneck -16.7747 0.0340217 -2.53152
upperneck 41.0176 -0.0525747 2.93896
head 18.1561 0.0799221 1.85542
rclavicle 1.98288e-014 -7.95139e-015
rhumerus -48.3778 -79.1588 45.6335
rradius 15.4667
rwrist 44.4998
rhand 2.90378 3.0792
rfingers 7.12502
rthumb 28.3686 -24.7914
lclavicle 1.98288e-014 -7.95139e-015
lhumerus 64.4858 5.24872 17.7111
lradius 29.749
lwrist -11.8219
lhand 8.75291 24.8189
lfingers 7.12502
lthumb 33.9426 51.6154
rfemur -57.2658 4.61268 24.7361
rtibia 38.1098
rfoot -47.2101 -40.0703
rtoes 43.7219
lfemur -11.1506 -3.33754 -22.4169
ltibia 28.329
lfoot 7.62513 44.3141
ltoes 22.7777
1128
root 8.56217 16.8442 28.0781 -327.319 27.4183 363.43
lowerback -20.1839 -5.29436 2.08529
upperback -15.5278 -6.93134 1.72016
thorax -5.79565 -3.50221 -0.323022
lowerneck -16.7411 0.0276589 -2.48456
upperneck 40.9573 -0.0844725 2.94374
head 18.1128 0.0755106 1.8404
rclavicle 8.97513e-014 2.3059e-014
rhumerus -44.0596 -78.1175 41.1686
rradius 15.5118
rwrist 43.0652
rhand 2.88279 2.8487
rfingers 7.12502
rthumb 28.3486 -25.0252
lclavicle 8.97513e-014 2.3059e-014
lhumerus 64.5817 5.29546 17.9215
lradius 29.6684
lwrist -12.1037
lhand 8.7456 24.5205
lfingers 7.12502
lthumb 33.9356 51.3185
rfemur -57.2061 4.66383 24.9117
rtibia 38.1256
rfoot -47.3272 -39.9531
rtoes 43.7989
lfemur -11.0729 -3.2524 -22.2353
ltibia 28.28
lfoot 7.57563 44.3892
ltoes 22.7192
1129
root 8.55603 16.8397 28.0819 -327.188 27.2354 363.602
lowerback -20.0807 -5.28515 1.84892
upperback -15.7398 -6.87767 1.64035
thorax -6.07292 -3.45976 -0.246527
lowerneck -16.3469 0.0321036 -2.30178
upperneck 40.951 -0.098023 2.81565
head 18.0034 0.081495 1.74011
rclavicle 3.65764e-014 3.45885e-014
rhumerus -35.2673 -74.5366 32.0867
rradius 15.6808
rwrist 39.2194
rhand 2.7397 2.26099
rfingers 7.12502
rthumb 28.2118 -25.6356
lclavicle 3.65764e-014 3.45885e-014
lhumerus 64.4838 4.90144 17.6363
lradius 29.7624
lwrist -11.8803
lhand 8.89111 24.113
lfingers 7.12502
lthumb 34.0739 50.8804
rfemur -57.2717 4.74624 24.6967
rtibia 38.0968
rfoot -47.5257 -39.7538
rtoes 43.9897
lfemur -11.1386 -3.2069 -22.4452
ltibia 28.3189
lfoot 7.91874 44.2907
ltoes 22.3287
1130
root 8.54055 16.8323 28.094 -326.683 26.7172 364.242
lowerback -20.5004 -5.43301 0.851828
upperback -15.8095 -6.92623 1.56882
thorax -5.82873 -3.40112 0.175416
lowerneck -15.9406 0.102049 -2.14198
upperneck 40.8015 -0.0186222 2.73282
head 17.8035 0.128401 1.67882
rclavicle 5.29264e-014 1.98785e-015
rhumerus -27.7142 -69.0414 24.0169
rradius 15.9904
rwrist 33.2514
rhand 2.43972 1.31932
rfingers 7.12502
rthumb 27.925 -26.6242
lclavicle 5.29264e-014 1.98785e-015
lhumerus 64.3796 4.80355 17.6095
lradius 29.8139
lwrist -11.8678
lhand 9.00702 23.9061
lfingers 7.12502
lthumb 34.1839 50.6488
rfemur -57.6373 4.87533 23.9139
rtibia 38.1077
rfoot -47.0761 -40.1004
rtoes 43.8151
lfemur -11.3629 -3.19987 -23.1776
ltibia 28.3219
lfoot 7.68205 44.2554
ltoes 22.6413
